<svg width="18" height="23" viewBox="0 0 18 23" fill="none" xmlns="http://www.w3.org/2000/svg">
<path fill-rule="evenodd" clip-rule="evenodd" d="M2.63677 2.63407C4.33542 0.936819 6.59846 0 9.00076 0C11.4026 0 13.6661 0.936799 15.3647 2.63407M2.63672 2.63412C1.03559 4.23375 0.174416 6.49104 0.0239936 8.74594C-0.126459 11.0013 0.426853 13.3601 1.79125 15.1772C1.8049 15.1954 1.81917 15.2131 1.83403 15.2303L8.24388 22.6536C8.43382 22.8735 8.71006 23 9.0007 23C9.29133 23 9.56759 22.8736 9.75756 22.6536L16.1578 15.2433C16.1727 15.2261 16.187 15.2083 16.2007 15.1901C17.5693 13.3673 18.1255 11.0058 17.9764 8.74819C17.8272 6.49129 16.966 4.23381 15.3648 2.63412M9.00076 2C7.12846 2 5.3739 2.72644 4.05036 4.0489L4.05031 4.04896C2.85499 5.24313 2.14417 7.01103 2.01956 8.87907C1.89577 10.7347 2.35763 12.5848 3.37096 13.95L9.00085 20.47L14.621 13.9629C15.6396 12.5906 16.1034 10.7368 15.9807 8.88005C15.8572 7.01078 15.1465 5.24307 13.9512 4.04896L13.9512 4.0489C12.6276 2.72646 10.8727 2 9.00076 2ZM9.0746 7.00234C8.01615 7.00234 7.15421 7.86475 7.15421 8.92037C7.15421 9.97599 8.01615 10.8384 9.0746 10.8384C10.133 10.8384 10.995 9.97599 10.995 8.92037C10.995 7.86475 10.133 7.00234 9.0746 7.00234ZM5.15421 8.92037C5.15421 6.75865 6.91311 5.00234 9.0746 5.00234C11.2361 5.00234 12.995 6.75865 12.995 8.92037C12.995 11.0821 11.2361 12.8384 9.0746 12.8384C6.91311 12.8384 5.15421 11.0821 5.15421 8.92037Z" fill="#00C38D"/>
</svg>
