<svg width="16" height="14" viewBox="0 0 16 14" fill="none" xmlns="http://www.w3.org/2000/svg">
<path fill-rule="evenodd" clip-rule="evenodd" d="M15.5 3.875H0.5V12.625C0.5 13.3154 1.05964 13.875 1.75 13.875H14.25C14.9404 13.875 15.5 13.3154 15.5 12.625V3.875ZM2.375 5.75H3.625V7H2.375V5.75ZM4.875 5.75H6.125V7H4.875V5.75ZM8.625 5.75H7.375V7H8.625V5.75ZM9.875 5.75H11.125V7H9.875V5.75ZM3.625 8.25H2.375V9.5H3.625V8.25ZM4.875 8.25H6.125V9.5H4.875V8.25ZM8.625 8.25H7.375V9.5H8.625V8.25ZM9.875 8.25H11.125V9.5H9.875V8.25ZM13.625 5.75H12.375V7H13.625V5.75ZM12.375 8.25H13.625V9.5H12.375V8.25ZM3.625 10.75H2.375V12H3.625V10.75ZM4.875 10.75H6.125V12H4.875V10.75ZM8.625 10.75H7.375V12H8.625V10.75ZM9.875 10.75H11.125V12H9.875V10.75Z" fill="white"/>
<path d="M10.5 0.125H11.75V2H10.5V0.125Z" fill="white"/>
<path fill-rule="evenodd" clip-rule="evenodd" d="M1.75 1.375C1.05964 1.375 0.5 1.93464 0.5 2.625V3.25H15.5V2.625C15.5 1.93464 14.9404 1.375 14.25 1.375H12.375V2.625H9.875V1.375H6.125V2.625H3.625V1.375H1.75Z" fill="white"/>
<path d="M4.25 0.125H5.5V2H4.25V0.125Z" fill="white"/>
</svg>
