<svg width="32" height="32" viewBox="0 0 32 32" fill="none" xmlns="http://www.w3.org/2000/svg">
<path fill-rule="evenodd" clip-rule="evenodd" d="M28 11H4V25C4 26.1046 4.89543 27 6 27H26C27.1046 27 28 26.1046 28 25V11ZM7 14H9V16H7V14ZM11 14H13V16H11V14ZM17 14H15V16H17V14ZM19 14H21V16H19V14ZM9 18H7V20H9V18ZM11 18H13V20H11V18ZM17 18H15V20H17V18ZM19 18H21V20H19V18ZM25 14H23V16H25V14ZM23 18H25V20H23V18ZM9 22H7V24H9V22ZM11 22H13V24H11V22ZM17 22H15V24H17V22ZM19 22H21V24H19V22Z" fill="#00C38D"/>
<path d="M20 5H22V8H20V5Z" fill="#00C38D"/>
<path fill-rule="evenodd" clip-rule="evenodd" d="M6 7C4.89543 7 4 7.89543 4 9V10H28V9C28 7.89543 27.1046 7 26 7H23V9H19V7H13V9H9V7H6Z" fill="#00C38D"/>
<path d="M10 5H12V8H10V5Z" fill="#00C38D"/>
</svg>
