<svg width="42" height="40" viewBox="0 0 42 40" fill="none" xmlns="http://www.w3.org/2000/svg">
<rect x="0.0705566" width="41.7263" height="40" rx="20" fill="#F0F4FB"/>
<path fill-rule="evenodd" clip-rule="evenodd" d="M15.6528 12C13.9604 12 12.5884 13.372 12.5884 15.0644V24.2576C12.5884 25.9501 13.9604 27.322 15.6528 27.322H25.5073C27.1997 27.322 28.5717 25.95 28.5717 24.2576V15.0644C28.5717 13.372 27.1997 12 25.5073 12H15.6528ZM24.5759 19.6611C24.5759 21.7766 22.7869 23.4916 20.5801 23.4916C18.3732 23.4916 16.5842 21.7766 16.5842 19.6611C16.5842 17.5455 18.3732 15.8306 20.5801 15.8306C22.7869 15.8306 24.5759 17.5455 24.5759 19.6611ZM20.6167 21.9948C21.9408 21.9948 23.0142 20.9658 23.0142 19.6965C23.0142 18.4272 21.9408 17.3982 20.6167 17.3982C19.2926 17.3982 18.2192 18.4272 18.2192 19.6965C18.2192 20.9658 19.2926 21.9948 20.6167 21.9948ZM26.9732 14.6814C26.9732 15.316 26.4365 15.8305 25.7744 15.8305C25.1124 15.8305 24.5757 15.316 24.5757 14.6814C24.5757 14.0467 25.1124 13.5322 25.7744 13.5322C26.4365 13.5322 26.9732 14.0467 26.9732 14.6814Z" fill="#8AA5C6"/>
</svg>
