<svg width="24" height="22" viewBox="0 0 24 22" fill="none" xmlns="http://www.w3.org/2000/svg">
<path fill-rule="evenodd" clip-rule="evenodd" d="M24 6H0V20C0 21.1046 0.89543 22 2 22H22C23.1046 22 24 21.1046 24 20V6ZM3 9H5V11H3V9ZM7 9H9V11H7V9ZM13 9H11V11H13V9ZM15 9H17V11H15V9ZM5 13H3V15H5V13ZM7 13H9V15H7V13ZM13 13H11V15H13V13ZM15 13H17V15H15V13ZM21 9H19V11H21V9ZM19 13H21V15H19V13ZM5 17H3V19H5V17ZM7 17H9V19H7V17ZM13 17H11V19H13V17ZM15 17H17V19H15V17Z" fill="#00C38D"/>
<path d="M16 0H18V3H16V0Z" fill="#00C38D"/>
<path fill-rule="evenodd" clip-rule="evenodd" d="M2 2C0.895431 2 0 2.89543 0 4V5H24V4C24 2.89543 23.1046 2 22 2H19V4H15V2H9V4H5V2H2Z" fill="#00C38D"/>
<path d="M6 0H8V3H6V0Z" fill="#00C38D"/>
</svg>
