<svg width="32" height="44" viewBox="0 0 32 44" fill="none" xmlns="http://www.w3.org/2000/svg">
<path fill-rule="evenodd" clip-rule="evenodd" d="M3 6.09146V33.9146C3.03136 33.9444 3.07817 33.9836 3.14678 34.031C3.38083 34.1928 3.74407 34.3612 4.22606 34.5132C5.17108 34.8111 6.29116 34.9597 7.03885 35H29V3H6C4.94903 3 4.28257 3.46167 3.81186 4.08835C3.32397 4.73792 3.07387 5.54742 3 6.09146ZM29 38H6.96252L6.92509 37.9981C6.00582 37.9522 4.59694 37.7757 3.32394 37.3743C3.2386 37.3474 3.15254 37.3191 3.0661 37.2892C3.16248 37.8274 3.35467 38.2307 3.57818 38.5423C3.91144 39.0068 4.37715 39.353 4.90441 39.6086C5.43368 39.8652 5.98127 40.0089 6.40895 40.0867C6.61926 40.1249 6.79153 40.1456 6.90589 40.1565C6.96283 40.1619 7.00471 40.1649 7.02898 40.1663L7.04407 40.1671L29 40.4786V38ZM7 41.6667L6.95457 43.166L6.96664 43.1663L32 43.5214V0H6C3.85097 0 2.35077 1.03833 1.41314 2.28665C0.515406 3.48185 0.11556 4.87689 0.00917435 5.83435L0 5.91692V36.5C0 38.0438 0.430819 39.3017 1.14057 40.291C1.83856 41.264 2.74785 41.897 3.59559 42.3081C4.44132 42.7181 5.26873 42.9286 5.8723 43.0383C6.17762 43.0938 6.43503 43.1252 6.62146 43.143C6.7149 43.1519 6.79119 43.1574 6.84749 43.1608C6.87566 43.1625 6.8989 43.1637 6.91684 43.1645L6.93978 43.1655L6.9482 43.1658L6.95164 43.1659L6.95317 43.1659C6.95317 43.1659 6.95457 43.166 7 41.6667ZM0.768549 35.9216L3 35.9216L0.768549 35.9216ZM2.94166 33.848L2.94247 33.8495L2.94166 33.848Z" fill="#00C38D"/>
<path fill-rule="evenodd" clip-rule="evenodd" d="M7 29.5C7 28.6716 7.67157 28 8.5 28H24.5C25.3284 28 26 28.6716 26 29.5C26 30.3284 25.3284 31 24.5 31H8.5C7.67157 31 7 30.3284 7 29.5Z" fill="#00C38D"/>
<path fill-rule="evenodd" clip-rule="evenodd" d="M7 24.5C7 23.6716 7.67157 23 8.5 23H24.5C25.3284 23 26 23.6716 26 24.5C26 25.3284 25.3284 26 24.5 26H8.5C7.67157 26 7 25.3284 7 24.5Z" fill="#00C38D"/>
<path fill-rule="evenodd" clip-rule="evenodd" d="M16 14.5C17.3807 14.5 18.5 13.3807 18.5 12C18.5 10.6193 17.3807 9.5 16 9.5C14.6193 9.5 13.5 10.6193 13.5 12C13.5 13.3807 14.6193 14.5 16 14.5ZM16 17.5C19.0376 17.5 21.5 15.0376 21.5 12C21.5 8.96243 19.0376 6.5 16 6.5C12.9624 6.5 10.5 8.96243 10.5 12C10.5 15.0376 12.9624 17.5 16 17.5Z" fill="#00C38D"/>
</svg>
