<svg width="48" height="44" viewBox="0 0 48 44" fill="none" xmlns="http://www.w3.org/2000/svg">
<path fill-rule="evenodd" clip-rule="evenodd" d="M18 13.9999H6.5V10.9999H18V13.9999ZM42.5 13.9999H30V10.9999H42.5V13.9999ZM18 20.4999H6.5V17.4999H18V20.4999ZM42.5 20.4999H30V17.4999H42.5V20.4999ZM18 27.9999H6.5V24.9999H18V27.9999ZM42.5 27.9999H30V24.9999H42.5V27.9999Z" fill="#00C38D"/>
<path fill-rule="evenodd" clip-rule="evenodd" d="M30.5586 0.0203364H48V44H0V0.0203364H16.5C17.8961 0.0203364 20.011 0.28857 21.8366 1.15463C22.5843 1.50934 23.3227 1.98828 23.9385 2.61315C24.5045 1.9146 25.1937 1.37643 25.9332 0.978861C27.5461 0.111657 29.3438 -0.0682653 30.5586 0.0203364ZM25.5 6.51565V36.1794C25.5759 36.1197 25.6525 36.0614 25.7298 36.0046C27.4612 34.7318 29.4987 34.2068 30.8843 34.1009L30.9421 34.0965H45V2.98526H30.4376L30.3754 2.98014C29.5904 2.91548 28.3745 3.04155 27.3668 3.58332C26.4542 4.07399 25.6652 4.91831 25.5 6.51565ZM45 37.0614H31.0617C30.1131 37.144 28.6832 37.5287 27.5202 38.3836C26.6981 38.9879 25.9979 39.8291 25.681 41.0351H45V37.0614ZM22.5 35.9364V6.44433C22.5 5.24644 21.8029 4.42743 20.5384 3.82758C19.239 3.21118 17.6039 2.98526 16.5 2.98526H3V33.6023H15.4593C17.0314 33.5219 19.359 33.8492 21.4017 35.1257C21.7831 35.3641 22.1512 35.6337 22.5 35.9364ZM3 36.5672V41.0351H22.257C21.8087 39.3313 20.8494 38.2885 19.7983 37.6317C18.3773 36.7436 16.68 36.5028 15.5858 36.5648L15.543 36.5672H3Z" fill="#244873"/>
</svg>
