<svg width="47" height="48" viewBox="0 0 47 48" fill="none" xmlns="http://www.w3.org/2000/svg">
<path fill-rule="evenodd" clip-rule="evenodd" d="M2.78339 16.2734C-0.652388 24.3177 0.879239 33.9633 7.35206 40.5689L7.64935 40.8723C16.5094 49.9141 31.0995 49.8912 39.9974 40.9056C48.5412 32.2776 48.8214 18.3927 40.5524 9.48413L40.1916 9.09539C33.3242 1.69685 22.7124 0.106841 14.2296 4.21966L15.7706 6.80978C23.0677 3.39202 32.1157 4.80467 37.9928 11.1363L38.3536 11.5251C45.5205 19.2462 45.287 31.3003 37.8657 38.7947C30.1366 46.6 17.4708 46.6088 9.79209 38.7726L9.49481 38.4692C4.46443 33.3357 2.88396 26.0796 4.76985 19.6123L2.78339 16.2734Z" fill="#244873"/>
<path fill-rule="evenodd" clip-rule="evenodd" d="M26.3316 7.52859C25.7288 6.37074 25.1851 5.32661 24.6318 4.52802L27.0978 2.81951C27.7702 3.79012 28.4257 5.05127 29.0301 6.21391C29.1575 6.45918 29.2827 6.70007 29.4053 6.93292C30.1658 8.37711 30.8208 9.50147 31.4324 10.1131C31.8611 10.5418 32.235 10.8365 32.5922 11.1008C32.6588 11.1501 32.7304 11.2022 32.8053 11.2566C33.0991 11.4702 33.4447 11.7214 33.7502 11.9963C34.6547 12.8104 35.2675 13.8487 35.8141 15.7617C36.4919 18.134 35.5926 19.9821 34.7406 21.2571C34.5295 21.573 34.3139 21.865 34.1242 22.1193C34.0966 22.1563 34.0698 22.1922 34.0437 22.2272C33.9354 22.3722 33.8395 22.5006 33.7525 22.621C34.2722 22.7346 34.9196 22.8271 35.6439 22.9305L35.7205 22.9415C36.5424 23.0589 37.5312 23.2001 38.2455 23.4382C38.5617 23.5436 39.1326 23.7603 39.5307 24.2436C39.7674 24.5311 39.9568 24.931 39.9568 25.415C39.9568 25.8751 39.7854 26.2473 39.613 26.5058C39.3942 26.834 39.0516 27.1945 38.7255 27.5168C38.3736 27.8648 37.9414 28.2639 37.4709 28.6873C36.9213 29.1818 36.286 29.7388 35.6381 30.307C35.1904 30.6996 34.7366 31.0975 34.3009 31.4838C33.2073 32.4531 32.2029 33.3701 31.5082 34.0947C31.2733 34.3396 31.096 34.54 30.97 34.6962C31.0042 34.8129 31.036 34.9311 31.0653 35.0462C31.1688 35.4529 31.274 35.9562 31.3632 36.5207C31.5404 37.6429 31.6638 39.0672 31.5599 40.5011C31.4576 41.9139 31.125 43.4779 30.2727 44.7604C29.3722 46.1155 27.9547 47.0531 25.98 47.2053L25.5851 47.2357L25.2266 47.0672C23.972 46.4774 21.4847 45.2926 19.3003 43.7161C18.208 42.9277 17.1319 41.9998 16.3168 40.9481C15.5036 39.8987 14.8718 38.6223 14.8718 37.1738C14.8718 34.145 16.2673 32.1782 17.4829 30.7601C17.73 30.4718 17.9466 30.23 18.1411 30.0129C18.4626 29.654 18.7239 29.3625 18.9627 29.0395C19.3102 28.5698 19.3718 28.3253 19.3718 28.1738C19.3718 27.2271 19.6951 26.3053 20.0567 25.5217C20.4254 24.7228 20.9057 23.9207 21.3405 23.2063C21.3896 23.1257 21.438 23.0463 21.4857 22.9681C21.8793 22.3227 22.2238 21.7579 22.4865 21.2387C22.7399 20.7379 22.836 20.4297 22.863 20.2651C22.8587 20.2569 22.8537 20.2479 22.8481 20.2381C22.7778 20.1144 22.6471 19.9327 22.4339 19.6946C22.0084 19.2193 21.3805 18.6582 20.628 18.0621C19.1315 16.8769 17.3142 15.6885 16.1 14.96L17.6435 12.3875C18.9294 13.1591 20.8621 14.4206 22.4906 15.7104C23.3005 16.3519 24.079 17.0345 24.669 17.6935C24.9637 18.0227 25.2431 18.3808 25.456 18.7552C25.6586 19.1115 25.8718 19.6049 25.8718 20.1738C25.8718 21.0492 25.5079 21.9122 25.1633 22.5932C24.8427 23.2267 24.431 23.9012 24.0485 24.5277C23.9995 24.6081 23.9509 24.6876 23.9031 24.7662C23.4629 25.4894 23.0681 26.1559 22.7806 26.7789C22.486 27.4173 22.3718 27.8704 22.3718 28.1738C22.3718 29.2722 21.8709 30.1527 21.3746 30.8236C21.0572 31.2527 20.6334 31.7276 20.2469 32.1608C20.0729 32.3558 19.9065 32.5424 19.7607 32.7125C18.7262 33.9193 17.8718 35.2025 17.8718 37.1738C17.8718 37.7252 18.1131 38.3685 18.6881 39.1104C19.2613 39.85 20.0884 40.5851 21.0559 41.2834C22.8049 42.5457 24.8184 43.5519 26.1144 44.1686C26.9285 44.0245 27.4239 43.6269 27.7741 43.1C28.2219 42.4261 28.4835 41.4476 28.5678 40.2844C28.6505 39.1423 28.5528 37.9571 28.3999 36.9888C28.324 36.5081 28.2368 36.0959 28.1579 35.7859C28.094 35.5346 28.0481 35.4008 28.0329 35.3566C28.0269 35.3391 28.0257 35.3357 28.0301 35.3446C27.7326 34.7496 27.8753 34.1885 27.9592 33.9416C28.0555 33.6584 28.2034 33.4106 28.3299 33.2229C28.5892 32.8383 28.9551 32.4228 29.3427 32.0185C30.131 31.1962 31.2187 30.2069 32.3109 29.2388C32.7763 28.8262 33.2393 28.4203 33.6881 28.0268C34.3188 27.4739 34.9217 26.9454 35.4643 26.4571C35.6387 26.3002 35.8034 26.1505 35.9572 26.0088C35.7476 25.9765 35.5208 25.9434 35.2778 25.9087C35.2271 25.9014 35.1757 25.8941 35.1237 25.8867C34.3198 25.7723 33.3772 25.6381 32.6265 25.4334C32.2339 25.3263 31.765 25.1677 31.3644 24.9058C30.9655 24.645 30.3649 24.09 30.3649 23.1738C30.3649 22.2826 30.8588 21.5272 31.1633 21.0866C31.3153 20.8667 31.4864 20.6376 31.6447 20.4258C31.67 20.392 31.6949 20.3587 31.7194 20.3258C31.9055 20.0763 32.0813 19.8371 32.2462 19.5904C32.8976 18.6155 33.2517 17.7135 32.9295 16.5858C32.4761 14.9988 32.0888 14.5372 31.7433 14.2262C31.5644 14.0652 31.3859 13.9351 31.1213 13.7423C31.0286 13.6747 30.9253 13.5994 30.8076 13.5123C30.3835 13.1985 29.8824 12.8057 29.3111 12.2344C28.3228 11.2461 27.4707 9.69777 26.7508 8.33063C26.6075 8.05848 26.4681 7.79062 26.3316 7.52859ZM37.4265 26.3356C37.4265 26.3356 37.4216 26.3335 37.4135 26.3288C37.4227 26.3331 37.4265 26.3356 37.4265 26.3356Z" fill="#244873"/>
<path fill-rule="evenodd" clip-rule="evenodd" d="M3.41789 3.23804C5.18361 1.44908 7.57861 0.709717 9.89357 0.709717C12.1986 0.709717 14.601 1.4172 16.4371 3.16894C18.2921 4.93882 19.3935 7.60661 19.3936 11.1737C19.3937 14.2824 17.7479 17.4039 16.0067 19.9491C14.653 21.9278 13.1008 23.7488 11.9547 25.0932C11.6119 25.4954 11.3054 25.8549 11.0515 26.1633L10.0012 27.4386L8.83292 26.2704C6.49405 23.9315 1.33457 18.2765 0.896496 11.2673C0.676222 7.74294 1.63083 5.04861 3.41789 3.23804ZM5.55303 5.34545C4.49549 6.4169 3.71093 8.20459 3.89065 11.0802C4.19976 16.0259 7.43512 20.3583 9.82304 22.9677C10.9461 21.6494 12.306 20.0453 13.5306 18.2552C15.2061 15.8061 16.3936 13.3263 16.3936 11.1738C16.3935 8.2409 15.5056 6.42666 14.3662 5.33952C13.2077 4.23424 11.6102 3.70972 9.89357 3.70972C8.18689 3.70972 6.63189 4.25238 5.55303 5.34545Z" fill="#00C38D"/>
<path fill-rule="evenodd" clip-rule="evenodd" d="M9.87193 12.1738C10.7004 12.1738 11.3719 11.5022 11.3719 10.6738C11.3719 9.84534 10.7004 9.17377 9.87193 9.17377C9.0435 9.17377 8.37193 9.84534 8.37193 10.6738C8.37193 11.5022 9.0435 12.1738 9.87193 12.1738ZM9.87193 14.1738C11.8049 14.1738 13.3719 12.6068 13.3719 10.6738C13.3719 8.74077 11.8049 7.17377 9.87193 7.17377C7.93893 7.17377 6.37193 8.74077 6.37193 10.6738C6.37193 12.6068 7.93893 14.1738 9.87193 14.1738Z" fill="#00C38D"/>
</svg>
