<svg width="34" height="46" viewBox="0 0 34 46" fill="none" xmlns="http://www.w3.org/2000/svg">
<path fill-rule="evenodd" clip-rule="evenodd" d="M17 31C24.732 31 31 24.732 31 17C31 9.26801 24.732 3 17 3C9.26801 3 3 9.26801 3 17C3 24.732 9.26801 31 17 31ZM17 34C26.3888 34 34 26.3888 34 17C34 7.61116 26.3888 0 17 0C7.61116 0 0 7.61116 0 17C0 26.3888 7.61116 34 17 34Z" fill="#244873"/>
<path fill-rule="evenodd" clip-rule="evenodd" d="M30 28V45.4271L18.4854 39.6697L5.5 45.8801V29H8.5V41.1199L11.25 39.8047V32H14.25V38.3699L18.5146 36.3303L22 38.0729V31.5H25V39.5729L27 40.5729V28H30Z" fill="#244873"/>
<path fill-rule="evenodd" clip-rule="evenodd" d="M17 24C20.866 24 24 20.866 24 17C24 13.134 20.866 10 17 10C13.134 10 10 13.134 10 17C10 20.866 13.134 24 17 24ZM17 27C22.5228 27 27 22.5228 27 17C27 11.4772 22.5228 7 17 7C11.4772 7 7 11.4772 7 17C7 22.5228 11.4772 27 17 27Z" fill="#00C38D"/>
<path d="M17 13L17.8981 15.7639H20.8042L18.4531 17.4721L19.3511 20.2361L17 18.5279L14.6489 20.2361L15.5469 17.4721L13.1958 15.7639H16.1019L17 13Z" fill="#00C38D"/>
</svg>
