<svg width="32" height="32" viewBox="0 0 32 32" fill="none" xmlns="http://www.w3.org/2000/svg">
<path d="M8 20.51H9.89V18.2H8V14.78H9.89V5H16.1C18.52 5 20.31 5.56 21.47 6.68C22.63 7.78 23.21 9.35 23.21 11.39C23.21 12.65 22.97 13.8 22.49 14.84C22.01 15.86 21.24 16.68 20.18 17.3C19.12 17.9 17.71 18.2 15.95 18.2H14.48V20.51H18.41V23.39H14.48V26.42H9.89V23.39H8V20.51ZM15.89 8.63H14.48V14.78H15.47C16.41 14.78 17.16 14.53 17.72 14.03C18.3 13.53 18.59 12.72 18.59 11.6C18.59 9.62 17.69 8.63 15.89 8.63Z" fill="#00C38D"/>
</svg>
