<svg width="24" height="24" viewBox="0 0 24 24" fill="none" xmlns="http://www.w3.org/2000/svg">
<path d="M22.8612 1.82575C22.8146 1.66244 22.7271 1.51369 22.6071 1.39354C22.4871 1.27338 22.3384 1.18579 22.1751 1.139C20.1998 0.639531 18.1644 0.418436 16.128 0.482128C11.5876 0.604878 7.71548 2.1425 4.92898 4.929C2.14248 7.7155 0.604981 11.5875 0.482231 16.1273C0.41902 18.1636 0.640065 20.1989 1.13898 22.1743C1.18567 22.3376 1.27323 22.4864 1.39339 22.6066C1.51354 22.7268 1.66234 22.8143 1.82573 22.861C3.60638 23.3129 5.4373 23.5363 7.27436 23.5259C7.47061 23.5259 7.67011 23.5232 7.87286 23.5179C12.4125 23.3951 16.2847 21.8575 19.0712 19.071C21.8577 16.2845 23.3952 12.4125 23.518 7.87275C23.5812 5.83636 23.3602 3.8011 22.8612 1.82575ZM21.0705 2.9295C21.4708 4.83782 21.6039 6.79254 21.4659 8.7375L15.2577 2.52975C15.5425 2.50863 15.83 2.49225 16.1226 2.48313C17.7837 2.43701 19.4445 2.58684 21.0705 2.9295ZM6.34323 6.34313C8.07398 4.6125 10.2349 3.45888 12.789 2.8895L16.2427 6.34313L14.7355 7.85L14.3949 6.14663L12.4337 6.53925L12.8462 8.60388L10.7817 8.19138L10.3897 10.1521L12.093 10.4929L10.493 12.0929L10.1524 10.3898L8.19111 10.7819L8.60361 12.8465L6.53886 12.434L6.14661 14.3951L7.85011 14.7355L6.34323 16.2426L2.89648 12.7959C3.39398 10.5736 4.41261 8.27363 6.34323 6.34313ZM2.92973 21.0705C2.5294 19.1622 2.39634 17.2075 2.53436 15.2625L8.74248 21.4705C8.45773 21.4916 8.17023 21.508 7.87761 21.5171C6.21649 21.5633 4.55573 21.4134 2.92973 21.0705ZM17.657 17.6569C15.9262 19.3876 13.7654 20.5411 11.2112 21.1105L7.75748 17.6569L9.26473 16.15L9.60536 17.8534L11.5665 17.4611L11.154 15.3965L13.2185 15.809L13.6109 13.8479L11.9076 13.5071L13.5076 11.9071L13.8482 13.6103L15.8095 13.2181L15.397 11.1535L17.4617 11.566L17.854 9.60488L16.1501 9.2645L17.6572 7.75738L21.104 11.2041C20.6062 13.4264 19.5876 15.7264 17.657 17.6569Z" fill="white"/>
</svg>
