<svg width="61" height="61" viewBox="0 0 61 61" fill="none" xmlns="http://www.w3.org/2000/svg">
<path fill-rule="evenodd" clip-rule="evenodd" d="M5.36133 0H55.6387C58.5948 0 61 2.40515 61 5.36133V8.08434C61 12.4949 59.4828 16.8207 56.7272 20.2646C54.3742 23.2059 51.2412 25.3904 47.6674 26.5819L47.6446 26.5893L45.6472 27.225C43.4468 30.8039 39.9996 33.56 35.8613 34.87V37.6484C35.8613 38.6337 36.6632 39.4355 37.6484 39.4355C40.6046 39.4355 43.0098 41.8407 43.0098 44.7969V46.584H44.7969C45.784 46.584 46.584 47.384 46.584 48.3711V57.4258H48.3711C49.3582 57.4258 50.1582 58.2258 50.1582 59.2129C50.1582 60.2 49.3582 61 48.3711 61H12.6289C11.6418 61 10.8418 60.2 10.8418 59.2129C10.8418 58.2258 11.6418 57.4258 12.6289 57.4258H14.416V48.3711C14.416 47.384 15.216 46.584 16.2031 46.584H17.9902V44.7969C17.9902 41.8407 20.3954 39.4355 23.3516 39.4355C24.3368 39.4355 25.1387 38.6337 25.1387 37.6484V34.87C20.9957 33.5586 17.5453 30.7974 15.3454 27.2129L13.4513 26.5819C9.82397 25.3728 6.56436 23.1291 4.27277 20.2646C1.51718 16.8207 0 12.4949 0 8.08434V5.36133C0 2.40515 2.40515 0 5.36133 0ZM3.57422 8.08434C3.57422 11.6865 4.81357 15.2188 7.06372 18.0317C8.67865 20.0501 10.8953 21.6924 13.3945 22.7428C13.1404 21.8353 12.9547 20.9003 12.8481 19.943L11.0294 3.57422H5.36133C4.3761 3.57422 3.57422 4.37609 3.57422 5.36133V8.08434ZM17.9902 50.1582V57.4258H43.0098V50.1582H17.9902ZM32.2871 33.5064C32.2871 32.6739 32.8619 31.9516 33.6735 31.7649C39.5472 30.4134 43.9377 25.504 44.5995 19.5484L46.3746 3.57422H14.6254L16.4005 19.5484C17.0623 25.504 21.4528 30.4134 27.3265 31.7649C28.1381 31.9516 28.7129 32.6739 28.7129 33.5064V37.6484C28.7129 40.6046 26.3077 43.0098 23.3516 43.0098C22.3663 43.0098 21.5645 43.8116 21.5645 44.7969V46.584H39.4355V44.7969C39.4355 43.8116 38.6337 43.0098 37.6484 43.0098C34.6923 43.0098 32.2871 40.6046 32.2871 37.6484V33.5064ZM53.9363 18.0317C56.1864 15.2188 57.4258 11.6865 57.4258 8.08434V5.36133C57.4258 4.37609 56.6239 3.57422 55.6387 3.57422H49.9706L48.1519 19.943C48.043 20.9199 47.8522 21.873 47.5897 22.7982C50.0712 21.7725 52.2492 20.1408 53.9363 18.0317ZM33.8835 11.6674L37.8993 12.237C38.5779 12.3334 39.1415 12.809 39.3504 13.4615C39.5594 14.114 39.377 14.8284 38.8804 15.3007L36.0001 18.0424L36.6781 21.9019C36.7954 22.5702 36.5246 23.2468 35.9782 23.6499C35.4323 24.0524 34.7054 24.1111 34.1017 23.8011L30.5001 21.9521L26.8979 23.8011C26.2957 24.1102 25.5688 24.0529 25.0215 23.6499C24.4755 23.2473 24.2047 22.5702 24.322 21.9019L25 18.0424L22.1192 15.3007C21.6231 14.8288 21.4407 14.114 21.6497 13.4615C21.8586 12.809 22.4222 12.3334 23.1003 12.237L27.1166 11.6674L28.9052 8.12949C29.209 7.52773 29.8262 7.14844 30.5001 7.14844C31.174 7.14844 31.791 7.52773 32.0949 8.12949L33.8835 11.6674ZM32.3141 17.7175C32.2104 17.1279 32.4086 16.5261 32.8424 16.1133L33.742 15.257L32.4579 15.075C31.8795 14.9931 31.3778 14.6334 31.1139 14.1116L30.5001 12.897L29.8857 14.1121C29.6223 14.6334 29.1206 14.9931 28.5421 15.075L27.2581 15.2574L28.1577 16.1133C28.591 16.5261 28.7893 17.1279 28.6859 17.7175L28.464 18.9797L29.6837 18.3537C30.1961 18.0908 30.804 18.0908 31.3159 18.3537L32.5357 18.9797L32.3141 17.7175Z" fill="#6B5ECE"/>
</svg>
