<svg width="42" height="40" viewBox="0 0 42 40" fill="none" xmlns="http://www.w3.org/2000/svg">
<rect x="0.013916" width="41.7263" height="40" rx="20" fill="#F0F4FB"/>
<path fill-rule="evenodd" clip-rule="evenodd" d="M25.5047 20.683C25.8641 21.0695 26.2489 21.4313 26.5968 21.8285C26.8497 22.1174 27.0838 22.431 27.2843 22.7609C27.5377 23.1783 27.3811 23.5714 26.9075 23.6415C26.6097 23.6853 25.1544 23.6418 25.0792 23.6415C24.6879 23.6397 24.345 23.498 24.0688 23.2209C23.7617 22.9123 23.4824 22.5739 23.1875 22.252C23.0986 22.155 23.0038 22.062 22.9015 21.9809C22.6604 21.789 22.4236 21.8316 22.3108 22.1271C22.2145 22.3809 22.1312 23.0475 22.1274 23.1042C22.1071 23.402 21.9255 23.5917 21.6058 23.61C20.6828 23.6623 19.7884 23.5549 18.9553 23.0894C18.2491 22.695 17.6851 22.1374 17.1966 21.4869C16.4207 20.454 15.8077 19.3186 15.2482 18.1497C15.2196 18.0899 14.6528 16.8321 14.6376 16.7727C14.5869 16.5738 14.6341 16.3838 14.7953 16.3183C14.8958 16.2775 16.7644 16.3183 16.7956 16.32C17.0937 16.3368 17.297 16.4679 17.4226 16.7908C17.7796 17.7102 18.232 18.5771 18.8279 19.3552C18.9069 19.4587 19.0065 19.5508 19.1115 19.6258C19.2647 19.7355 19.4093 19.697 19.4717 19.5141C19.5376 19.3222 19.5981 18.9333 19.6017 18.7317C19.6115 18.2051 19.6001 17.86 19.5732 17.3341C19.5554 16.9972 19.4407 16.7015 18.9656 16.6123C18.819 16.5846 18.8052 16.4586 18.8996 16.333C19.0957 16.0713 19.3691 16.0297 19.6656 16.0132C20.1459 15.9861 20.6282 16.0082 21.1092 16.0132C21.3052 16.0151 21.5023 16.0316 21.6952 16.0755C21.947 16.1326 22.0817 16.3168 22.1232 16.573C22.1448 16.7053 22.1558 16.8411 22.1528 16.9749C22.1403 17.5496 22.1137 18.1242 22.1074 18.6986C22.1047 18.9241 22.1205 19.1551 22.1668 19.3748C22.2314 19.6809 22.4312 19.7576 22.6355 19.5366C22.895 19.2556 23.1238 18.9397 23.3385 18.6187C23.7285 18.035 24.0199 17.3942 24.2706 16.7336C24.4004 16.3927 24.4998 16.3186 24.8514 16.3178C25.5122 16.3162 26.1731 16.3157 26.8339 16.3178C26.9511 16.3183 27.0736 16.33 27.1844 16.3666C27.3637 16.4264 27.4351 16.579 27.3931 16.7729C27.295 17.2269 27.0596 17.6129 26.8076 17.9839C26.4032 18.5792 25.9795 19.1603 25.5655 19.7486C25.5129 19.8237 25.4663 19.9036 25.423 19.9848C25.2682 20.2764 25.2789 20.44 25.5047 20.683Z" fill="#8AA5C6"/>
</svg>
