<svg width="16" height="22" viewBox="0 0 16 22" fill="none" xmlns="http://www.w3.org/2000/svg">
<path d="M0 15.51H1.89V13.2H0V9.78H1.89V0H8.1C10.52 0 12.31 0.559999 13.47 1.68C14.63 2.78 15.21 4.35 15.21 6.39C15.21 7.65 14.97 8.8 14.49 9.84C14.01 10.86 13.24 11.68 12.18 12.3C11.12 12.9 9.71 13.2 7.95 13.2H6.48V15.51H10.41V18.39H6.48V21.42H1.89V18.39H0V15.51ZM7.89 3.63H6.48V9.78H7.47C8.41 9.78 9.16 9.53 9.72 9.03C10.3 8.53 10.59 7.72 10.59 6.6C10.59 4.62 9.69 3.63 7.89 3.63Z" fill="#00C38D"/>
</svg>

