<svg width="22" height="22" viewBox="0 0 22 22" fill="none" xmlns="http://www.w3.org/2000/svg">
<path fill-rule="evenodd" clip-rule="evenodd" d="M11 22C17.0751 22 22 17.0751 22 11C22 4.92487 17.0751 0 11 0C4.92487 0 0 4.92487 0 11C0 17.0751 4.92487 22 11 22ZM10 5C10 4.44771 10.4477 4 11 4C11.5523 4 12 4.44772 12 5V11.3051H15.1621C15.6292 11.3051 16.0078 11.6837 16.0078 12.1508C16.0078 12.6179 15.6292 12.9965 15.1621 12.9965H11.0838C11.0562 12.9988 11.0282 13 11 13C10.9718 13 10.9438 12.9988 10.9162 12.9965C10.6197 12.9959 10.3591 12.8427 10.2086 12.6113C10.0778 12.4423 10 12.2302 10 12V5Z" fill="#00C38D"/>
</svg>
