<svg width="48" height="38" viewBox="0 0 48 38" fill="none" xmlns="http://www.w3.org/2000/svg">
<path fill-rule="evenodd" clip-rule="evenodd" d="M14.2073 12.6126C9.53728 10.5968 6.16983 7.46261 4.99805 6.04717L7.05513 4C7.96257 5.09613 10.9818 7.94687 15.2249 9.77835C17.2331 10.6451 19.7193 10.9831 22.0785 11.025C24.4243 11.0667 26.5348 10.8144 27.7288 10.5779L28.2228 13.5752C26.8537 13.8465 24.5627 14.1155 22.0335 14.0706C19.5177 14.0259 16.6556 13.6694 14.2073 12.6126Z" fill="#00C38D"/>
<path fill-rule="evenodd" clip-rule="evenodd" d="M32.1781 16.0307C32.3642 16.8467 31.9117 17.6736 31.1675 17.8776L27.4633 18.8929C26.7191 19.0969 25.9649 18.6008 25.7788 17.7848C25.5928 16.9688 26.0453 16.1419 26.7895 15.9379L30.4937 14.9226C31.2379 14.7186 31.9921 15.2147 32.1781 16.0307Z" fill="#00C38D"/>
<path fill-rule="evenodd" clip-rule="evenodd" d="M34.9562 20.092C35.1423 20.908 34.6898 21.7349 33.9456 21.9389L30.2414 22.9542C29.4972 23.1582 28.743 22.662 28.5569 21.846C28.3709 21.03 28.8234 20.2032 29.5676 19.9992L33.2718 18.9839C34.016 18.7799 34.7702 19.276 34.9562 20.092Z" fill="#00C38D"/>
<path fill-rule="evenodd" clip-rule="evenodd" d="M11.119 0L11.8993 1.07499C12.3109 1.64197 13.1457 2.60116 14.2357 3.50524C15.3324 4.41483 16.5956 5.19188 17.865 5.51977C20.719 6.25698 23.2296 6.14423 25.1351 5.98017L25.9885 5.90668L36.6789 22.475H40.7412C41.5876 22.475 43.4011 22.6126 45.0329 23.8169C46.755 25.0878 48 27.3372 48 30.975C48 32.2733 47.9943 33.2587 47.971 33.9987C47.9486 34.7107 47.9083 35.3034 47.8076 35.759C47.7078 36.2102 47.4603 36.9305 46.7064 37.2881C46.3971 37.4349 46.1095 37.4626 45.9493 37.4714C45.8374 37.4774 45.6897 37.476 45.6166 37.4753C45.6006 37.4751 45.5881 37.475 45.5804 37.475H1.93404V34.475H19.3751L12.2831 30.225H1.93404V27.225H8.24482L0.184714 22.3948L0.101193 21.6469C-0.0214939 20.5483 -0.0475486 19.1081 0.107035 17.475L0.573154 14.475C1.60651 9.71033 4.23476 4.20312 9.99937 0.683596L11.119 0ZM2.92963 18.5886L24.2897 32.475H45.0923C45.0884 33.0449 45.0812 33.5138 45.069 33.9013C45.0618 34.1294 45.0531 34.3185 45.0435 34.475H24.1944L2.92509 20.5689C2.8922 19.9788 2.89009 19.3118 2.92963 18.5886ZM44.9975 29.475C44.7365 27.6489 44.0039 26.7442 43.3453 26.2581C42.4365 25.5874 41.3465 25.475 40.7412 25.475H35.125L24.5145 9.0305C22.2248 9.16166 20.0842 9.18535 17.1607 8.4302C15.333 7.95809 13.6927 6.90181 12.4181 5.84473C11.6497 5.20739 10.9809 4.5419 10.4486 3.94596C6.1576 7.01288 4.14997 11.4981 3.34977 15.3756L25.0672 29.475H44.9975Z" fill="#244873"/>
</svg>
