<svg width="40" height="41" viewBox="0 0 40 41" fill="none" xmlns="http://www.w3.org/2000/svg">
<path fill-rule="evenodd" clip-rule="evenodd" d="M13.7847 33.1996C16.7062 33.1996 19.0745 30.7969 19.0745 27.8331C19.0745 24.8692 16.7062 22.4665 13.7847 22.4665C10.8632 22.4665 8.49486 24.8692 8.49486 27.8331C8.49486 30.7969 10.8632 33.1996 13.7847 33.1996ZM13.7847 30.1996C15.0087 30.1996 16.0745 29.181 16.0745 27.8331C16.0745 26.4852 15.0087 25.4665 13.7847 25.4665C12.5606 25.4665 11.4949 26.4852 11.4949 27.8331C11.4949 29.181 12.5606 30.1996 13.7847 30.1996Z" fill="#244873"/>
<path fill-rule="evenodd" clip-rule="evenodd" d="M26.3063 27.8287L26.3063 27.8331C26.3063 31.0883 25.3408 34.281 23.1449 36.6945C20.9086 39.1522 17.6753 40.4929 13.7847 40.4929C11.8032 40.4929 9.98672 40.1446 8.38483 39.4648C6.24084 41.257 2.83234 41.7559 0.95266 39.4431C-0.828583 37.2515 0.0949682 34.1738 2.01997 32.331C1.5068 30.7449 1.27172 29.0373 1.27172 27.2965C1.27172 23.1436 2.82235 20.1198 5.11582 17.8138C7.12922 15.7895 9.72443 14.3309 11.9127 13.101L11.9197 13.0971C12.0519 13.0228 12.1826 12.9493 12.3117 12.8765L14.7096 11.525L16.7971 14.5816L20.8521 12.2232L19.1803 9.18634L32.3927 1.14532L39.9983 14.1181L37.7074 15.7012C36.3264 16.6555 34.5982 17.701 30.3461 20.224C28.1771 21.511 26.9315 22.3815 26.2217 23.0083C25.9281 23.2675 25.7781 23.4402 25.7065 23.5349C25.7222 23.6381 25.7597 23.8573 25.8533 24.2777L25.8671 24.3395C26.0424 25.1262 26.3041 26.3005 26.3063 27.8287ZM3.41702 35.2955C2.83307 36.2393 2.94639 37.1401 3.25373 37.5183C3.57286 37.9109 4.47721 38.2027 5.55433 37.7299C5.14085 37.38 4.75222 36.9978 4.39001 36.5839C4.03253 36.1753 3.70868 35.7449 3.41702 35.2955ZM25.6484 23.6232C25.6484 23.6232 25.6503 23.618 25.6568 23.6071C25.6521 23.6177 25.6484 23.6232 25.6484 23.6232ZM24.8933 13.3434L15.8934 18.5776L13.7847 15.49L13.4892 15.6565C8.82918 18.28 4.27172 20.8459 4.27172 27.2965C4.27172 33.1997 7.43689 37.4929 13.7847 37.4929C20.1324 37.4929 23.3063 33.1997 23.3063 27.8331C23.3046 26.6348 23.1022 25.7259 22.9312 24.9576C22.4098 22.6152 22.1796 21.5813 28.8152 17.644C33.0997 15.1018 34.7253 14.1153 36.0019 13.2331L31.3471 5.29356L23.1936 10.2558L24.8933 13.3434Z" fill="#244873"/>
<path d="M19.6685 1L18.0815 5.29325M7.43652 9.34206L11.752 9.3012M11.6233 2.07361L14.0703 5.92864" stroke="#00C38D" stroke-width="3"/>
</svg>
