<svg width="50" height="50" viewBox="0 0 50 50" fill="none" xmlns="http://www.w3.org/2000/svg">
<path fill-rule="evenodd" clip-rule="evenodd" d="M13.1157 12.498C23.2659 2.34788 37.6705 3.37577 43.5996 5.11964L44.4302 5.36392L44.6342 6.20529C46.0286 11.9574 46.5552 25.9562 37.2821 36.0723C32.5866 41.1947 26.3201 43.6348 20.5062 44.6369C14.6964 45.6383 9.20461 45.2291 5.86737 44.5265L4.92801 44.3288L4.7141 43.3929C4.00395 40.286 3.59672 35.1082 4.59948 29.459C5.60463 23.7964 8.04413 17.5696 13.1157 12.498ZM33.063 7.05023C27.3239 7.37955 20.581 9.27543 15.2371 14.6193C10.7087 19.1477 8.48148 24.7543 7.5533 29.9834C7.44484 30.5944 7.35436 31.199 7.28012 31.7948C10.353 32.6314 14.9798 35.5103 16.3514 42.1256C17.5363 42.0379 18.7586 41.8939 19.9966 41.6805C25.3993 40.7493 30.9662 38.5227 35.0707 34.0451C39.5798 29.126 41.5279 23.1169 42.1644 17.8073C39.0237 16.9324 34.3088 13.9388 33.063 7.05023ZM36.1147 7.01585C37.1558 11.7879 40.2514 13.9549 42.3983 14.7367C42.4892 11.9896 42.2541 9.56623 41.9051 7.77061C40.3623 7.39437 38.37 7.09414 36.1147 7.01585ZM7.44628 41.7719C7.12689 39.9777 6.92055 37.5749 7.02927 34.8547C9.12321 35.5943 12.1711 37.6654 13.3001 42.235C11.0501 42.2307 9.03696 42.0394 7.44628 41.7719Z" fill="#244873"/>
<path fill-rule="evenodd" clip-rule="evenodd" d="M27.9899 19.389L30.4395 16.9394L32.5608 19.0607L30.1308 21.4907L32.6616 23.9751L30.56 26.116L28.0094 23.6121L26.1313 25.4902L28.6063 27.9198L26.5046 30.0607L24.0099 27.6116L22.1308 29.4907L24.6616 31.9751L22.56 34.116L20.0094 31.6121L17.5608 34.0607L15.4395 31.9394L17.8685 29.5104L15.4493 27.1355L17.5509 24.9947L19.9899 27.389L21.869 25.5099L19.394 23.0802L21.4956 20.9394L23.9904 23.3885L25.8685 21.5104L23.4493 19.1355L25.5509 16.9947L27.9899 19.389Z" fill="#00C38D"/>
</svg>
