<svg width="42" height="40" viewBox="0 0 42 40" fill="none" xmlns="http://www.w3.org/2000/svg">
<rect x="0.0285645" width="41.7263" height="40" rx="20" fill="#F0F4FB"/>
<path d="M27.604 16.2457C27.6147 16.3882 27.6147 16.5307 27.6147 16.6731C27.6147 21.0177 24.1538 26.0237 17.8284 26.0237C15.8797 26.0237 14.0694 25.4844 12.5466 24.5484C12.8235 24.5789 13.0897 24.5891 13.3772 24.5891C14.9852 24.5891 16.4654 24.0702 17.6474 23.185C16.1353 23.1544 14.8681 22.2082 14.4315 20.9058C14.6444 20.9363 14.8574 20.9567 15.0811 20.9567C15.3899 20.9567 15.6987 20.916 15.9862 20.8448C14.4102 20.5395 13.2281 19.2168 13.2281 17.6193V17.5787C13.686 17.8229 14.2185 17.9755 14.7828 17.9958C13.8564 17.4057 13.2494 16.3984 13.2494 15.2588C13.2494 14.6483 13.4198 14.0887 13.718 13.6003C15.4111 15.5946 17.9562 16.8969 20.8101 17.0394C20.7568 16.7952 20.7249 16.5408 20.7249 16.2865C20.7249 14.4753 22.2583 13 24.1644 13C25.1548 13 26.0493 13.3968 26.6776 14.0378C27.4549 13.8954 28.2003 13.6207 28.8606 13.2442C28.605 14.0073 28.0619 14.6483 27.3484 15.0553C28.0406 14.9841 28.7115 14.8009 29.3291 14.5466C28.8606 15.1977 28.2749 15.7777 27.604 16.2457Z" fill="#8AA5C6"/>
</svg>
