<svg width="42" height="40" viewBox="0 0 42 40" fill="none" xmlns="http://www.w3.org/2000/svg">
<rect x="0.0422363" width="41.7263" height="40" rx="20" fill="#F0F4FB"/>
<path fill-rule="evenodd" clip-rule="evenodd" d="M15.6245 15C13.932 15 12.5601 16.372 12.5601 18.0644V22.661C12.5601 24.3534 13.932 25.7254 15.6245 25.7254H25.479C27.1714 25.7254 28.5434 24.3534 28.5434 22.661V18.0644C28.5434 16.372 27.1714 15 25.479 15H15.6245ZM18.4114 22.644L22.8884 20.5837C22.9305 20.5643 22.9467 20.557 22.949 20.5467C22.9541 20.524 22.8923 20.4863 22.8923 20.2725L18.4153 18.0834C18.2957 18.0249 18.1543 18.1088 18.1543 18.2381V22.4874C18.1543 22.6149 18.2921 22.6989 18.4114 22.644Z" fill="#8AA5C6"/>
</svg>
